<?xml version="1.0" encoding="UTF-8" standalone="no"?>
<!-- Created with Inkscape (http://www.inkscape.org/) -->

<svg
   version="1.1"
   id="svg14618"
   width="880"
   height="880"
   viewBox="0 0 880 880"
   sodipodi:docname="eyeball-vector-clipart-pdv.svg"
   inkscape:version="1.2 (dc2aedaf03, 2022-05-15)"
   xmlns:inkscape="http://www.inkscape.org/namespaces/inkscape"
   xmlns:sodipodi="http://sodipodi.sourceforge.net/DTD/sodipodi-0.dtd"
   xmlns="http://www.w3.org/2000/svg"
   xmlns:svg="http://www.w3.org/2000/svg">
  <defs
     id="defs14622">
    <clipPath
       clipPathUnits="userSpaceOnUse"
       id="clipPath14634">
      <path
         d="M 0,660 H 660 V 0 H 0 Z"
         id="path14632" />
    </clipPath>
  </defs>
  <sodipodi:namedview
     id="namedview14620"
     pagecolor="#ffffff"
     bordercolor="#000000"
     borderopacity="0.25"
     inkscape:showpageshadow="2"
     inkscape:pageopacity="0.0"
     inkscape:pagecheckerboard="0"
     inkscape:deskcolor="#d1d1d1"
     showgrid="false"
     inkscape:zoom="0.95113636"
     inkscape:cx="441.05137"
     inkscape:cy="440.52569"
     inkscape:window-width="1920"
     inkscape:window-height="1017"
     inkscape:window-x="-8"
     inkscape:window-y="-8"
     inkscape:window-maximized="1"
     inkscape:current-layer="g14626">
    <inkscape:page
       x="0"
       y="0"
       id="page14624"
       width="880"
       height="880" />
  </sodipodi:namedview>
  <g
     id="g14626"
     inkscape:groupmode="layer"
     inkscape:label="Page 1"
     transform="matrix(1.3333333,0,0,-1.3333333,0,880)">
    <g
       id="g14628">
      <g
         id="g14630"
         clip-path="url(#clipPath14634)">
        <g
           id="g14636"
           transform="translate(324.1753,126.1113)">
          <path
             d="m 0,0 c 113.94,0 206.87,27.491 206.87,61.196 0,33.707 -92.93,61.199 -206.87,61.199 -113.939,0 -206.869,-27.492 -206.869,-61.199 C -206.869,27.491 -113.939,0 0,0"
             style="fill:#ffffff;fill-opacity:1;fill-rule:evenodd;stroke:none"
             id="path14638" />
        </g>
        <g
           id="g14640"
           transform="translate(324.1753,246.3057)">
          <path
             d="m 0,0 c 110.145,0 199.436,-26.414 199.436,-58.998 0,-32.582 -89.291,-58.996 -199.436,-58.996 -110.146,0 -199.436,26.414 -199.436,58.996 C -199.436,-26.414 -110.146,0 0,0"
             style="fill:#fafafa;fill-opacity:1;fill-rule:evenodd;stroke:none"
             id="path14642" />
        </g>
        <g
           id="g14644"
           transform="translate(324.1753,244.1064)">
          <path
             d="m 0,0 c 106.039,0 192.002,-25.431 192.002,-56.799 0,-31.368 -85.963,-56.799 -192.002,-56.799 -106.039,0 -192.003,25.431 -192.003,56.799 C -192.003,-25.43 -106.039,0 0,0"
             style="fill:#f6f6f6;fill-opacity:1;fill-rule:evenodd;stroke:none"
             id="path14646" />
        </g>
        <g
           id="g14648"
           transform="translate(324.1753,241.9082)">
          <path
             d="m 0,0 c 101.934,0 184.569,-24.445 184.569,-54.601 0,-30.153 -82.635,-54.598 -184.569,-54.598 -101.934,0 -184.566,24.445 -184.566,54.598 C -184.566,-24.445 -101.934,0 0,0"
             style="fill:#f1f1f1;fill-opacity:1;fill-rule:evenodd;stroke:none"
             id="path14650" />
        </g>
        <g
           id="g14652"
           transform="translate(324.1753,239.709)">
          <path
             d="m 0,0 c 97.829,0 177.135,-23.462 177.135,-52.401 0,-28.94 -79.306,-52.402 -177.135,-52.402 -97.83,0 -177.134,23.462 -177.134,52.402 C -177.134,-23.462 -97.83,0 0,0"
             style="fill:#ededed;fill-opacity:1;fill-rule:evenodd;stroke:none"
             id="path14654" />
        </g>
        <g
           id="g14656"
           transform="translate(324.1753,237.5088)">
          <path
             d="m 0,0 c 93.723,0 169.7,-22.477 169.7,-50.201 0,-27.726 -75.977,-50.201 -169.7,-50.201 -93.723,0 -169.7,22.475 -169.7,50.201 C -169.7,-22.477 -93.723,0 0,0"
             style="fill:#e8e8e8;fill-opacity:1;fill-rule:evenodd;stroke:none"
             id="path14658" />
        </g>
        <g
           id="g14660"
           transform="translate(324.1753,235.3096)">
          <path
             d="m 0,0 c 89.618,0 162.266,-21.491 162.266,-48.002 0,-26.511 -72.648,-48.002 -162.266,-48.002 -89.617,0 -162.268,21.491 -162.268,48.002 C -162.268,-21.491 -89.617,0 0,0"
             style="fill:#e3e3e3;fill-opacity:1;fill-rule:evenodd;stroke:none"
             id="path14662" />
        </g>
        <g
           id="g14664"
           transform="translate(324.1753,233.1113)">
          <path
             d="M 0,0 C 85.51,0 154.835,-20.507 154.835,-45.804 154.835,-71.1 85.51,-91.606 0,-91.606 c -85.512,0 -154.833,20.507 -154.833,45.802 C -154.833,-20.506 -85.512,0 0,0"
             style="fill:#dfdfdf;fill-opacity:1;fill-rule:evenodd;stroke:none"
             id="path14666" />
        </g>
        <g
           id="g14668"
           transform="translate(324.1753,230.9121)">
          <path
             d="m 0,0 c 81.407,0 147.401,-19.522 147.401,-43.604 0,-24.081 -65.994,-43.605 -147.401,-43.605 -81.408,0 -147.399,19.524 -147.399,43.605 C -147.399,-19.522 -81.408,0 0,0"
             style="fill:#dadada;fill-opacity:1;fill-rule:evenodd;stroke:none"
             id="path14670" />
        </g>
        <g
           id="g14672"
           transform="translate(324.1753,228.7139)">
          <path
             d="m 0,0 c 77.299,0 139.965,-18.538 139.965,-41.404 0,-22.869 -62.666,-41.407 -139.965,-41.407 -77.301,0 -139.965,18.539 -139.965,41.407 C -139.965,-18.537 -77.301,0 0,0"
             style="fill:#d5d5d5;fill-opacity:1;fill-rule:evenodd;stroke:none"
             id="path14674" />
        </g>
        <g
           id="g14676"
           transform="translate(324.1753,226.5146)">
          <path
             d="M 0,0 C 73.196,0 132.534,-17.554 132.534,-39.207 132.534,-60.86 73.196,-78.412 0,-78.412 c -73.197,0 -132.532,17.552 -132.532,39.205 C -132.532,-17.554 -73.197,0 0,0"
             style="fill:#d1d1d1;fill-opacity:1;fill-rule:evenodd;stroke:none"
             id="path14678" />
        </g>
        <g
           id="g14680"
           transform="translate(324.1753,224.3145)">
          <path
             d="m 0,0 c 69.09,0 125.1,-16.567 125.1,-37.007 0,-20.437 -56.01,-37.007 -125.1,-37.007 -69.09,0 -125.099,16.57 -125.099,37.007 C -125.099,-16.567 -69.09,0 0,0"
             style="fill:#cccccc;fill-opacity:1;fill-rule:evenodd;stroke:none"
             id="path14682" />
        </g>
        <g
           id="g14684"
           transform="translate(324.1753,222.1162)">
          <path
             d="m 0,0 c 64.985,0 117.664,-15.584 117.664,-34.809 0,-19.224 -52.679,-34.807 -117.664,-34.807 -64.986,0 -117.666,15.583 -117.666,34.807 C -117.666,-15.584 -64.986,0 0,0"
             style="fill:#c8c8c8;fill-opacity:1;fill-rule:evenodd;stroke:none"
             id="path14686" />
        </g>
        <g
           id="g14688"
           transform="translate(324.1753,219.917)">
          <path
             d="m 0,0 c 60.879,0 110.231,-14.6 110.231,-32.609 0,-18.009 -49.352,-32.61 -110.231,-32.61 -60.881,0 -110.23,14.601 -110.23,32.61 C -110.23,-14.6 -60.881,0 0,0"
             style="fill:#c3c3c3;fill-opacity:1;fill-rule:evenodd;stroke:none"
             id="path14690" />
        </g>
        <g
           id="g14692"
           transform="translate(324.1753,217.7187)">
          <path
             d="M 0,0 C 56.774,0 102.797,-13.615 102.797,-30.411 102.797,-47.205 56.774,-60.82 0,-60.82 c -56.773,0 -102.798,13.615 -102.798,30.409 C -102.798,-13.615 -56.773,0 0,0"
             style="fill:#bebebe;fill-opacity:1;fill-rule:evenodd;stroke:none"
             id="path14694" />
        </g>
        <g
           id="g14696"
           transform="translate(324.1753,215.5195)">
          <path
             d="m 0,0 c 52.668,0 95.364,-12.631 95.364,-28.212 0,-15.58 -42.696,-28.21 -95.364,-28.21 -52.668,0 -95.364,12.63 -95.364,28.21 C -95.364,-12.631 -52.668,0 0,0"
             style="fill:#bababa;fill-opacity:1;fill-rule:evenodd;stroke:none"
             id="path14698" />
        </g>
        <g
           id="g14700"
           transform="translate(324.1753,213.3213)">
          <path
             d="m 0,0 c 48.561,0 87.93,-11.648 87.93,-26.014 0,-14.367 -39.369,-26.011 -87.93,-26.011 -48.563,0 -87.932,11.645 -87.932,26.011 C -87.932,-11.648 -48.563,0 0,0"
             style="fill:#b5b5b5;fill-opacity:1;fill-rule:evenodd;stroke:none"
             id="path14702" />
        </g>
        <g
           id="g14704"
           transform="translate(324.1753,211.1201)">
          <path
             d="m 0,0 c 44.456,0 80.497,-10.66 80.497,-23.812 0,-13.151 -36.041,-23.811 -80.497,-23.811 -44.457,0 -80.497,10.66 -80.497,23.811 C -80.497,-10.66 -44.457,0 0,0"
             style="fill:#b0b0b0;fill-opacity:1;fill-rule:evenodd;stroke:none"
             id="path14706" />
        </g>
        <g
           id="g14708"
           transform="translate(324.1753,208.9219)">
          <path
             d="m 0,0 c 40.352,0 73.063,-9.678 73.063,-21.614 0,-11.937 -32.711,-21.613 -73.063,-21.613 -40.352,0 -73.063,9.676 -73.063,21.613 C -73.063,-9.678 -40.352,0 0,0"
             style="fill:#acacac;fill-opacity:1;fill-rule:evenodd;stroke:none"
             id="path14710" />
        </g>
        <g
           id="g14712"
           transform="translate(324.1753,206.7227)">
          <path
             d="m 0,0 c 36.245,0 65.629,-8.691 65.629,-19.415 0,-10.723 -29.384,-19.413 -65.629,-19.413 -36.246,0 -65.631,8.69 -65.631,19.413 C -65.631,-8.691 -36.246,0 0,0"
             style="fill:#a7a7a7;fill-opacity:1;fill-rule:evenodd;stroke:none"
             id="path14714" />
        </g>
        <g
           id="g14716"
           transform="translate(324.1753,204.5244)">
          <path
             d="m 0,0 c 32.141,0 58.196,-7.709 58.196,-17.217 0,-9.508 -26.055,-17.216 -58.196,-17.216 -32.142,0 -58.196,7.708 -58.196,17.216 C -58.196,-7.709 -32.142,0 0,0"
             style="fill:#a3a3a3;fill-opacity:1;fill-rule:evenodd;stroke:none"
             id="path14718" />
        </g>
        <g
           id="g14720"
           transform="translate(324.1753,172.292)">
          <path
             d="M 0,0 C 27.96,0 50.764,6.746 50.764,15.018 50.764,23.289 27.96,30.033 0,30.033 -27.959,30.033 -50.762,23.289 -50.762,15.018 -50.762,6.746 -27.959,0 0,0"
             style="fill:#9e9e9e;fill-opacity:1;fill-rule:evenodd;stroke:none"
             id="path14722" />
        </g>
        <g
           id="g14724"
           transform="translate(417.6719,599.479)">
          <path
             d="M 0,0 C 116.979,-32.663 184.621,-152.984 151.082,-268.746 117.543,-384.509 -4.477,-451.874 -121.453,-419.21 -238.434,-386.55 -306.074,-266.229 -272.534,-150.466 -238.996,-34.705 -116.977,32.662 0,0"
             style="fill:#d0e5f2;fill-opacity:1;fill-rule:evenodd;stroke:none"
             id="path14726" />
        </g>
        <g
           id="g14728"
           transform="translate(485.6113,539.7056)">
          <path
             d="m 0,0 c 17.352,-36.798 -13.939,-70.828 -69.891,-76.004 -55.951,-5.173 -115.373,20.463 -132.725,57.262 -17.35,36.801 13.941,70.83 69.891,76.004 C -76.773,62.438 -17.352,36.801 0,0"
             style="fill:#daedfa;fill-opacity:1;fill-rule:evenodd;stroke:none"
             id="path14730" />
        </g>
        <g
           id="g14732"
           transform="translate(483.6543,484.7729)">
          <path
             d="m 0,0 c 31.697,-10.856 52.565,-32.254 65.141,-58.563 11.988,-25.082 15.724,-55.401 8.851,-86.211 -6.922,-31.014 -23.679,-58.557 -46.039,-78.793 -23.67,-21.42 -54.719,-35.561 -88.17,-36.183 -36.732,-0.668 -69.203,14.853 -90.912,41.865 -23.103,28.741 -32.88,69.015 -22.427,111.876 10.364,42.489 37.911,76.204 72.111,95.238 C -69.576,6.968 -31.697,10.855 0,0"
             style="fill:#157ea1;fill-opacity:1;fill-rule:evenodd;stroke:none"
             id="path14734" />
        </g>
        <g
           id="g14736"
           transform="translate(480.8398,472.7241)">
          <path
             d="m 0,0 c 28.83,-9.356 48.201,-28.577 59.867,-52.479 11.154,-22.858 14.66,-50.619 8.346,-78.914 -6.377,-28.451 -21.813,-53.58 -42.438,-71.926 -21.705,-19.302 -49.978,-31.831 -80.285,-31.887 -32.931,-0.086 -61.82,14.377 -80.949,38.861 -20.228,25.891 -28.666,61.811 -19.438,99.907 9.196,37.851 33.489,68.021 63.766,85.4 C -62.719,5.274 -28.828,9.357 0,0"
             style="fill:#2da3ca;fill-opacity:1;fill-rule:evenodd;stroke:none"
             id="path14738" />
        </g>
        <g
           id="g14740"
           transform="translate(474.1172,443.7095)">
          <path
             d="m 0,0 c 21.834,-6.149 37.172,-20.307 46.426,-38.3 8.947,-17.395 11.912,-38.783 6.974,-60.693 -4.949,-21.981 -17.181,-41.253 -33.281,-54.983 -16.762,-14.298 -38.297,-23.049 -60.951,-22.214 -24.143,0.894 -44.832,12.36 -58.244,30.709 -13.961,19.102 -19.608,45.067 -13.053,72.428 6.516,27.187 23.584,49.257 45.051,62.482 C -46.57,2.066 -21.834,6.151 0,0"
             style="fill:#3bb1d9;fill-opacity:1;fill-rule:evenodd;stroke:none"
             id="path14742" />
        </g>
        <g
           id="g14744"
           transform="translate(423.918,475.0698)">
          <path
             d="m 0,0 c 8.203,1.838 16.488,2.744 24.81,2.755 -0.078,-12.849 -0.189,-25.626 -0.246,-38.323 -0.113,-14.904 -0.193,-29.69 -0.267,-44.379 -4.242,13.832 -8.514,27.919 -12.854,42.304 C 7.652,-25.313 3.853,-12.732 0,0 m -45.881,-20.926 c 9.174,-10.725 18.059,-21.124 26.783,-31.266 9.993,-11.662 19.696,-22.975 29.137,-33.959 -5.551,13.575 -11.197,27.446 -16.939,41.591 -4.987,12.212 -10.067,24.629 -15.174,37.3 -8.274,-3.646 -16.293,-8.239 -23.807,-13.666 m -36.588,-40.1 c 13.49,-6.108 26.621,-12.033 39.27,-17.754 14.404,-6.559 28.289,-12.852 41.695,-18.922 -10.615,10.059 -21.57,20.444 -32.844,31.165 -9.9,9.334 -20.074,18.966 -30.48,28.865 -6.613,-7.024 -12.553,-14.825 -17.641,-23.354 m -18.193,-52.204 c 0.628,4.809 1.521,9.648 2.687,14.447 1.165,4.799 2.589,9.493 4.249,14.113 14.312,-4.723 28.132,-9.256 41.576,-13.682 15.199,-5.022 29.838,-9.854 43.992,-14.464 -15.24,-0.062 -31.078,-0.126 -47.489,-0.2 -14.539,-0.073 -29.488,-0.13 -45.015,-0.214 m 4.844,-52.922 c 14.41,6.168 28.421,12.131 42.029,17.953 15.486,6.619 30.465,13.027 44.945,19.235 -15.246,-1.641 -31.076,-3.312 -47.543,-5.043 -14.441,-1.507 -29.443,-3.088 -44.906,-4.729 0.749,-9.553 2.622,-18.748 5.475,-27.416 m 25.838,-42.137 c 10.765,10.529 21.351,20.795 31.714,30.931 11.891,11.627 23.547,22.994 34.918,34.096 -13.81,-7.476 -28.105,-15.196 -42.828,-23.129 -12.881,-6.958 -26.111,-14.131 -39.73,-21.469 4.49,-7.543 9.847,-14.402 15.926,-20.429 m 39.615,-24.204 c 5.879,12.408 11.703,24.7 17.498,36.903 6.728,14.215 13.431,28.255 20.043,42.153 -10.268,-11.81 -20.737,-23.845 -31.434,-36.137 -9.265,-10.659 -18.693,-21.521 -28.271,-32.538 6.894,-4.325 14.302,-7.805 22.164,-10.381 m 44.562,-4.408 c -3.881,-0.423 -7.779,-0.64 -11.785,-0.649 -4.006,-0.013 -8.041,0.193 -11.961,0.602 4.727,12.32 9.449,24.524 14.111,36.702 5.467,14.216 10.907,28.326 16.305,42.28 -1.256,-14.321 -2.447,-28.598 -3.625,-42.852 -1.004,-12.085 -2.015,-24.089 -3.045,-36.083 m 42.158,12.997 c -3.132,9.926 -6.269,19.995 -9.439,30.237 -3.814,12.195 -7.668,24.607 -11.592,37.215 -0.121,-13.935 -0.244,-27.807 -0.336,-41.572 -0.107,-11.63 -0.221,-23.203 -0.32,-34.726 7.537,2.249 14.779,5.245 21.687,8.846 m 34.579,26.211 c -5.288,-5.559 -11.024,-10.695 -17.18,-15.258 -3.719,9.302 -7.473,18.752 -11.283,28.364 -4.575,11.506 -9.215,23.215 -13.944,35.157 8.084,-9.216 15.977,-18.208 23.686,-26.945 6.383,-7.264 12.605,-14.368 18.721,-21.318 m 24.169,35.019 c -8.029,3.502 -16.269,7.073 -24.738,10.738 -10.246,4.425 -20.801,9.041 -31.703,13.782 8.617,-8.432 17.004,-16.583 25.188,-24.559 6.755,-6.615 13.38,-13.054 19.869,-19.351 4.285,6.109 8.082,12.583 11.384,19.39 M 127.08,-123 c -0.49,-3.569 -1.141,-7.144 -1.945,-10.74 -0.807,-3.595 -1.756,-7.147 -2.844,-10.622 -8.23,2.865 -16.649,5.806 -25.307,8.801 -10.502,3.662 -21.359,7.444 -32.517,11.344 12.101,0.221 23.869,0.449 35.246,0.674 9.34,0.182 18.469,0.354 27.367,0.543 m -1.016,40.378 c 1.333,-6.88 2.083,-13.989 2.208,-21.28 -8.963,-0.774 -18.122,-1.602 -27.571,-2.443 -11.469,-1.04 -23.279,-2.094 -35.488,-3.18 11.685,5.165 23.045,10.183 34.105,15.082 9.118,4.034 18.041,7.946 26.746,11.821 m -14.388,37.08 c -7.404,-7.366 -14.94,-14.827 -22.621,-22.434 -9.225,-9.173 -18.66,-18.525 -28.256,-28.072 11.519,6.028 22.761,11.91 33.699,17.637 9.014,4.736 17.836,9.341 26.449,13.872 -2.486,6.664 -5.574,13.011 -9.271,18.997 M 84.334,-16.136 C 79.469,-26.54 74.537,-36.983 69.588,-47.58 63.666,-60.159 57.693,-72.812 51.676,-85.624 c 9.156,10.377 18.154,20.567 26.986,30.553 7.365,8.31 14.596,16.528 21.73,24.574 -4.783,5.296 -10.13,10.098 -16.058,14.361 m -27.41,13.791 c 3.636,-1.181 7.133,-2.534 10.511,-4.066 -4.304,-11.07 -8.593,-22.171 -12.957,-33.366 -5.158,-13.265 -10.341,-26.633 -15.539,-40.13 1.221,14.412 2.426,28.853 3.655,43.371 1.051,12.325 2.094,24.714 3.148,37.132 3.785,-0.77 7.541,-1.762 11.182,-2.941"
             style="fill:#1f92b8;fill-opacity:1;fill-rule:evenodd;stroke:none"
             id="path14746" />
        </g>
        <g
           id="g14748"
           transform="translate(433.293,444.2236)">
          <path
             d="m 0,0 c 0.664,-2.266 1.375,-4.536 2.068,-6.796 4.34,-14.386 8.61,-28.472 12.854,-42.305 0.074,14.689 0.154,29.475 0.266,44.379 0.007,2.306 0.023,4.64 0.042,7.005 C 10.113,1.99 5.008,1.212 0,0 m -33.252,-15.772 c 4.578,3.335 9.315,6.261 14.256,8.771 0.892,-2.261 1.793,-4.488 2.721,-6.712 5.744,-14.145 11.386,-28.016 16.937,-41.592 -9.439,10.984 -19.142,22.297 -29.135,33.959 -1.578,1.847 -3.164,3.675 -4.779,5.574 m -26.285,-29.025 c 2.336,-1.052 4.65,-2.096 6.963,-3.137 14.404,-6.559 28.289,-12.852 41.695,-18.921 -10.615,10.058 -21.57,20.444 -32.844,31.166 -1.83,1.667 -3.642,3.399 -5.451,5.137 -3.773,-4.41 -7.269,-9.153 -10.363,-14.245 M -73,-82.214 c 0.432,2.86 0.998,5.749 1.697,8.648 0.698,2.897 1.496,5.688 2.399,8.479 2.445,-0.828 4.898,-1.622 7.377,-2.419 15.203,-5.02 29.837,-9.853 43.994,-14.464 -15.239,-0.063 -31.076,-0.126 -47.489,-0.201 -2.677,-0.028 -5.351,-0.031 -7.978,-0.043 m 2.355,-38.307 c 2.491,1.044 4.989,2.111 7.483,3.168 15.482,6.62 30.463,13.028 44.943,19.235 -15.246,-1.641 -31.076,-3.313 -47.545,-5.042 -2.631,-0.246 -5.248,-0.53 -7.937,-0.804 0.533,-5.714 1.566,-11.275 3.056,-16.557 m 17.352,-31.527 c -3.518,3.87 -6.582,8.115 -9.307,12.693 2.364,1.257 4.731,2.533 7.049,3.81 14.723,7.933 29.02,15.653 42.828,23.129 -11.371,-11.102 -23.029,-22.469 -34.918,-34.096 -1.91,-1.843 -3.795,-3.699 -5.652,-5.536 m 27.859,-19.439 c 1.075,2.258 2.143,4.485 3.192,6.743 6.728,14.217 13.431,28.255 20.045,42.153 -10.27,-11.809 -20.739,-23.845 -31.436,-36.137 -1.699,-1.949 -3.4,-3.901 -5.08,-5.864 4.141,-2.704 8.608,-5.011 13.279,-6.895 m 32.75,-5.167 c -2.431,-0.122 -4.839,-0.139 -7.324,-0.051 -2.488,0.091 -4.975,0.286 -7.379,0.611 0.854,2.215 1.688,4.458 2.575,6.695 5.466,14.215 10.904,28.325 16.304,42.28 -1.256,-14.321 -2.447,-28.598 -3.625,-42.853 -0.189,-2.255 -0.396,-4.48 -0.551,-6.682 m 32.018,8.169 c -4.455,-2.071 -9.064,-3.805 -13.795,-5.152 0.012,2.161 0.039,4.298 0.074,6.459 0.092,13.765 0.217,27.637 0.336,41.573 3.924,-12.609 7.779,-25.021 11.594,-37.214 0.594,-1.899 1.191,-3.784 1.791,-5.666 m 27.039,18.924 c -1.162,1.338 -2.353,2.66 -3.535,4.032 -7.709,8.737 -15.602,17.731 -23.686,26.945 4.729,-11.942 9.371,-23.65 13.942,-35.159 0.707,-1.759 1.41,-3.533 2.138,-5.307 3.913,2.892 7.653,6.061 11.141,9.489 m 19.322,26.453 c -2.193,-4.342 -4.703,-8.495 -7.472,-12.423 -1.245,1.216 -2.485,2.435 -3.748,3.664 -8.184,7.974 -16.571,16.126 -25.19,24.559 10.904,-4.741 21.459,-9.357 31.705,-13.782 1.592,-0.68 3.16,-1.352 4.705,-2.018 m 9.844,30.528 c -0.342,-2.301 -0.785,-4.598 -1.314,-6.928 -0.526,-2.332 -1.124,-4.629 -1.788,-6.88 -1.619,0.55 -3.238,1.1 -4.828,1.674 -10.504,3.661 -21.359,7.443 -32.519,11.343 12.103,0.222 23.871,0.449 35.248,0.674 1.723,0.034 3.449,0.068 5.201,0.117 m -0.535,31.235 c -1.682,-0.764 -3.357,-1.508 -5.061,-2.252 -11.06,-4.899 -22.42,-9.919 -34.105,-15.082 12.209,1.087 24.019,2.14 35.49,3.181 1.748,0.159 3.498,0.319 5.24,0.452 -0.164,4.682 -0.685,9.254 -1.564,13.701 m -11.051,28.406 c 2.367,-3.811 4.438,-7.803 6.162,-11.986 -1.656,-0.878 -3.31,-1.76 -4.99,-2.639 -10.94,-5.727 -22.182,-11.612 -33.701,-17.637 9.596,9.546 19.029,18.898 28.256,28.071 1.418,1.404 2.836,2.802 4.273,4.191 m -21.008,22.072 c -0.914,-1.969 -1.822,-3.918 -2.732,-5.867 -5.922,-12.578 -11.897,-25.232 -17.912,-38.044 9.156,10.377 18.152,20.568 26.986,30.553 1.355,1.568 2.727,3.101 4.094,4.602 -3.188,3.198 -6.656,6.149 -10.436,8.756 M 47.517,-2.721 C 46.703,-4.794 45.912,-6.877 45.103,-8.93 39.945,-22.196 34.76,-35.563 29.564,-49.06 c 1.221,14.412 2.426,28.852 3.655,43.37 0.172,2.264 0.375,4.549 0.603,6.832 2.317,-0.453 4.682,-1.006 7.002,-1.657 2.318,-0.649 4.518,-1.375 6.693,-2.206"
             style="fill:#279bc2;fill-opacity:1;fill-rule:evenodd;stroke:none"
             id="path14750" />
        </g>
        <g
           id="g14752"
           transform="translate(478.1738,401.3857)">
          <path
             d="M 0,0 C 24.152,-5.148 36.965,-29.147 31.209,-54.272 25.436,-79.483 2.043,-98.058 -22.145,-95.617 -47.826,-93.021 -64.32,-68.18 -57.754,-40.309 -51.254,-12.596 -24.15,5.15 0,0"
             style="fill:#1a1a1a;fill-opacity:1;fill-rule:evenodd;stroke:none"
             id="path14754" />
        </g>
        <g
           id="g14756"
           transform="translate(454.9551,388.2051)">
          <path
             d="m 0,0 c 12.625,-2.694 12.41,-14.038 0.84,-25.682 -11.613,-11.685 -31.496,-20.059 -45.022,-18.628 -14.359,1.524 -16.05,13.305 -3.105,26.219 C -34.434,-5.249 -12.621,2.695 0,0"
             style="fill:#ffffff;fill-opacity:1;fill-rule:evenodd;stroke:none"
             id="path14758" />
        </g>
        <g
           id="g14760"
           transform="translate(547.4375,281.1299)">
          <path
             d="m 0,0 c -49.5,-84.446 -152.164,-128.522 -251.22,-100.863 -116.98,32.662 -184.619,152.984 -151.081,268.745 9.176,31.671 24.985,59.705 45.49,83.075 -8.955,-15.277 -16.179,-31.869 -21.315,-49.604 C -411.667,85.592 -344.027,-34.731 -227.045,-67.393 -142.07,-91.118 -54.445,-62.05 0,0"
             style="fill:#c1dbeb;fill-opacity:1;fill-rule:evenodd;stroke:none"
             id="path14762" />
        </g>
      </g>
    </g>
  </g>
</svg>
